<svg xmlns="http://www.w3.org/2000/svg" viewBox="0 0 660 470" font-family="Segoe UI, Arial, sans-serif">
  <defs>
    <linearGradient id="bgA" x1="0" y1="0" x2="0" y2="1"><stop offset="0" stop-color="#ffffff"/><stop offset="1" stop-color="#faf8ff"/></linearGradient>
    <radialGradient id="cytoA" cx="42%" cy="40%" r="72%"><stop offset="0" stop-color="#fef1f4"/><stop offset="1" stop-color="#f7c8d3"/></radialGradient>
    <filter id="shA" x="-20%" y="-20%" width="140%" height="140%"><feDropShadow dx="0" dy="2" stdDeviation="3.5" flood-color="#7c3aed" flood-opacity="0.12"/></filter>
  </defs>
  <rect width="660" height="470" rx="18" fill="url(#bgA)"/>
  <rect x="22" y="22" width="40" height="5" rx="2.5" fill="#7c3aed"/>
  <text x="22" y="50" font-size="21" font-weight="800" fill="#1f2937">Animal cell</text>
  <ellipse cx="250" cy="268" rx="202" ry="152" fill="url(#cytoA)" stroke="#e26d8a" stroke-width="5" filter="url(#shA)"/>
  <ellipse cx="250" cy="268" rx="191" ry="141" fill="none" stroke="#f4a9bb" stroke-width="1.4" stroke-dasharray="2 7" opacity="0.7"/>
  <circle cx="232" cy="260" r="58" fill="#cbb6ec" stroke="#7e57c2" stroke-width="3"/>
  <circle cx="232" cy="260" r="58" fill="none" stroke="#ffffff" stroke-width="1.4" opacity="0.55"/>
  <circle cx="232" cy="260" r="20" fill="#7e57c2"/>
  <g transform="rotate(-12 352 182)"><ellipse cx="352" cy="182" rx="44" ry="23" fill="#f0a0a0" stroke="#e53935" stroke-width="2.5"/><path d="M324 184 q13 -15 26 0 q13 15 26 0" fill="none" stroke="#b71c1c" stroke-width="2"/></g>
  <g transform="rotate(16 150 332)"><ellipse cx="150" cy="332" rx="34" ry="18" fill="#f0a0a0" stroke="#e53935" stroke-width="2.2"/><path d="M128 333 q11 -12 22 0" fill="none" stroke="#b71c1c" stroke-width="1.8"/></g>
  <g fill="#3f5160"><circle cx="300" cy="348" r="5"/><circle cx="322" cy="358" r="5"/><circle cx="345" cy="347" r="5"/><circle cx="318" cy="334" r="5"/><circle cx="298" cy="370" r="5"/></g>
  <g stroke="#9aa3b2" stroke-width="1.6" fill="none">
    <line x1="430" y1="170" x2="486" y2="118"/>
    <line x1="392" y1="180" x2="486" y2="178"/>
    <line x1="290" y1="252" x2="486" y2="250"/>
    <line x1="372" y1="306" x2="486" y2="322"/>
    <line x1="346" y1="350" x2="486" y2="398"/>
  </g>
  <g fill="#7c3aed"><circle cx="430" cy="170" r="3.3"/><circle cx="392" cy="180" r="3.3"/><circle cx="290" cy="252" r="3.3"/><circle cx="372" cy="306" r="3.3"/><circle cx="346" cy="350" r="3.3"/></g>
  <g font-size="15.5" font-weight="600" fill="#1f2937">
    <text x="492" y="122">Cell membrane</text>
    <text x="492" y="183">Mitochondria</text>
    <text x="492" y="255">Nucleus</text>
    <text x="492" y="327">Cytoplasm</text>
    <text x="492" y="403">Ribosomes</text>
  </g>
</svg>
