<svg xmlns="http://www.w3.org/2000/svg" viewBox="0 0 680 420" font-family="Segoe UI, Arial, sans-serif">
  <defs>
    <linearGradient id="bgB" x1="0" y1="0" x2="0" y2="1"><stop offset="0" stop-color="#ffffff"/><stop offset="1" stop-color="#fff8ef"/></linearGradient>
    <radialGradient id="cytoB" cx="50%" cy="45%" r="70%"><stop offset="0" stop-color="#fff6ea"/><stop offset="1" stop-color="#ffe2bd"/></radialGradient>
    <filter id="shB" x="-20%" y="-20%" width="140%" height="140%"><feDropShadow dx="0" dy="2" stdDeviation="3.5" flood-color="#fb8c00" flood-opacity="0.14"/></filter>
  </defs>
  <rect width="680" height="420" rx="18" fill="url(#bgB)"/>
  <rect x="22" y="22" width="40" height="5" rx="2.5" fill="#fb8c00"/>
  <text x="22" y="50" font-size="21" font-weight="800" fill="#1f2937">Bacterial cell</text>
  <rect x="150" y="118" width="400" height="172" rx="86" fill="#ffe1bd" stroke="#fb8c00" stroke-width="8" filter="url(#shB)"/>
  <rect x="163" y="131" width="374" height="146" rx="73" fill="url(#cytoB)" stroke="#ef6c00" stroke-width="2.5"/>
  <ellipse cx="345" cy="205" rx="66" ry="40" fill="none" stroke="#6a1b9a" stroke-width="3"/>
  <path d="M312 188 q33 26 66 0" fill="none" stroke="#6a1b9a" stroke-width="2.4"/>
  <path d="M312 222 q33 -26 66 0" fill="none" stroke="#6a1b9a" stroke-width="2.4" opacity="0.5"/>
  <circle cx="232" cy="168" r="11" fill="none" stroke="#ad1457" stroke-width="3"/>
  <circle cx="245" cy="232" r="9.5" fill="none" stroke="#ad1457" stroke-width="3"/>
  <g stroke="#9aa3b2" stroke-width="1.6" fill="none">
    <line x1="345" y1="58" x2="345" y2="116"/>
    <line x1="470" y1="138" x2="560" y2="96"/>
    <line x1="470" y1="248" x2="560" y2="312"/>
    <line x1="238" y1="234" x2="150" y2="330"/>
    <line x1="360" y1="240" x2="360" y2="360"/>
  </g>
  <g fill="#fb8c00"><circle cx="345" cy="116" r="3.3"/><circle cx="470" cy="138" r="3.3"/><circle cx="470" cy="248" r="3.3"/><circle cx="238" cy="234" r="3.3"/><circle cx="360" cy="240" r="3.3"/></g>
  <g font-size="15.5" font-weight="600" fill="#1f2937">
    <text x="345" y="52" text-anchor="middle">Cell wall</text>
    <text x="566" y="100">Cell membrane</text>
    <text x="566" y="316">Cytoplasm</text>
    <text x="146" y="333" text-anchor="end">Plasmids</text>
    <text x="360" y="380" text-anchor="middle">Single circular strand of DNA</text>
  </g>
</svg>
