<svg xmlns="http://www.w3.org/2000/svg" viewBox="0 0 640 380" font-family="Segoe UI, Arial, sans-serif">
  <rect width="640" height="380" rx="16" fill="#ffffff"/>
  <text x="20" y="32" font-size="20" font-weight="700" fill="#111827">Bacterial cell</text>
  <rect x="130" y="120" width="380" height="150" rx="75" fill="#fff3e0" stroke="#fb8c00" stroke-width="7"/>
  <rect x="142" y="132" width="356" height="126" rx="63" fill="#fff8ee" stroke="#ef6c00" stroke-width="2.5"/>
  <ellipse cx="320" cy="195" rx="58" ry="34" fill="none" stroke="#6a1b9a" stroke-width="3"/>
  <path d="M295 178 q25 22 50 0" fill="none" stroke="#6a1b9a" stroke-width="2.5"/>
  <circle cx="220" cy="168" r="10" fill="none" stroke="#ad1457" stroke-width="3"/>
  <circle cx="232" cy="226" r="9" fill="none" stroke="#ad1457" stroke-width="3"/>
  <g stroke="#94a3b8" stroke-width="1.5">
    <line x1="320" y1="46" x2="320" y2="118"/>
    <line x1="430" y1="134" x2="512" y2="86"/>
    <line x1="430" y1="235" x2="512" y2="320"/>
    <line x1="226" y1="226" x2="150" y2="330"/>
    <line x1="320" y1="229" x2="320" y2="346"/>
  </g>
  <g font-size="15" font-weight="600" fill="#1f2937">
    <text x="320" y="42" text-anchor="middle">Cell wall</text>
    <text x="518" y="86">Cell membrane</text>
    <text x="518" y="324">Cytoplasm</text>
    <text x="140" y="345" text-anchor="end">Plasmids</text>
    <text x="320" y="364" text-anchor="middle">Single circular strand of DNA</text>
  </g>
</svg>
