<svg xmlns="http://www.w3.org/2000/svg" viewBox="0 0 600 500" font-family="Segoe UI, Arial, sans-serif">
  <defs>
    <linearGradient id="bgM" x1="0" y1="0" x2="0" y2="1"><stop offset="0" stop-color="#ffffff"/><stop offset="1" stop-color="#f7f9fc"/></linearGradient>
    <linearGradient id="metal" x1="0" y1="0" x2="1" y2="0"><stop offset="0" stop-color="#90a4ae"/><stop offset="0.5" stop-color="#cfd8dc"/><stop offset="1" stop-color="#78909c"/></linearGradient>
    <filter id="shM" x="-20%" y="-20%" width="140%" height="140%"><feDropShadow dx="0" dy="2" stdDeviation="3" flood-color="#37474f" flood-opacity="0.16"/></filter>
  </defs>
  <rect width="600" height="500" rx="18" fill="url(#bgM)"/>
  <rect x="22" y="22" width="40" height="5" rx="2.5" fill="#5b6478"/>
  <text x="22" y="50" font-size="21" font-weight="800" fill="#1f2937">Light microscope</text>
  <g filter="url(#shM)">
    <rect x="95" y="432" width="210" height="36" rx="13" fill="url(#metal)" stroke="#607d8b" stroke-width="2.5"/>
    <path d="M250 432 q60 -10 60 -120 l0 -150 q0 -22 -22 -22" fill="none" stroke="#90a4ae" stroke-width="22" stroke-linecap="round"/>
    <rect x="150" y="96" width="50" height="46" rx="9" fill="#90a4ae" stroke="#455a64" stroke-width="2.5"/>
    <rect x="161" y="138" width="28" height="78" rx="4" fill="#b0bec5" stroke="#607d8b" stroke-width="2"/>
    <circle cx="175" cy="232" r="24" fill="#78909c" stroke="#455a64" stroke-width="2.5"/>
    <rect x="151" y="250" width="15" height="36" rx="3" fill="#607d8b"/>
    <rect x="172" y="250" width="15" height="42" rx="3" fill="#546e7a"/>
    <rect x="184" y="250" width="15" height="30" rx="3" fill="#607d8b"/>
    <rect x="108" y="300" width="160" height="20" rx="4" fill="#546e7a" stroke="#37474f" stroke-width="1.5"/>
    <rect x="150" y="291" width="64" height="9" fill="#bbdefb" stroke="#64b5f6" stroke-width="1.5"/>
    <circle cx="188" cy="372" r="19" fill="#fff59d" stroke="#fbc02d" stroke-width="2.5"/>
    <circle cx="285" cy="250" r="22" fill="#90a4ae" stroke="#455a64" stroke-width="2.5"/>
    <circle cx="285" cy="300" r="14" fill="#90a4ae" stroke="#455a64" stroke-width="2.5"/>
  </g>
  <g stroke="#9aa3b2" stroke-width="1.6" fill="none">
    <line x1="200" y1="112" x2="380" y2="112"/>
    <line x1="199" y1="264" x2="380" y2="205"/>
    <line x1="307" y1="250" x2="380" y2="262"/>
    <line x1="299" y1="300" x2="380" y2="320"/>
    <line x1="214" y1="310" x2="380" y2="376"/>
    <line x1="207" y1="372" x2="380" y2="432"/>
  </g>
  <g fill="#5b6478"><circle cx="200" cy="112" r="3.3"/><circle cx="199" cy="264" r="3.3"/><circle cx="307" cy="250" r="3.3"/><circle cx="299" cy="300" r="3.3"/><circle cx="214" cy="310" r="3.3"/><circle cx="207" cy="372" r="3.3"/></g>
  <g font-size="15.5" font-weight="600" fill="#1f2937">
    <text x="386" y="116">Eyepiece</text>
    <text x="386" y="209">Coarse adjustment knob</text>
    <text x="386" y="266">Objective lenses</text>
    <text x="386" y="324">Fine adjustment knob</text>
    <text x="386" y="380">Stage</text>
    <text x="386" y="436">Light</text>
  </g>
</svg>
