<svg xmlns="http://www.w3.org/2000/svg" viewBox="0 0 560 470" font-family="Segoe UI, Arial, sans-serif">
  <rect width="560" height="470" rx="16" fill="#ffffff"/>
  <text x="20" y="32" font-size="20" font-weight="700" fill="#111827">Light microscope</text>
  <rect x="90" y="402" width="200" height="34" rx="12" fill="#cfd8dc" stroke="#607d8b" stroke-width="2.5"/>
  <rect x="235" y="150" width="28" height="255" rx="6" fill="#b0bec5" stroke="#607d8b" stroke-width="2.5"/>
  <rect x="150" y="70" width="46" height="44" rx="8" fill="#90a4ae" stroke="#455a64" stroke-width="2.5"/>
  <rect x="160" y="112" width="26" height="80" fill="#b0bec5" stroke="#607d8b" stroke-width="2"/>
  <circle cx="173" cy="205" r="22" fill="#78909c" stroke="#455a64" stroke-width="2"/>
  <rect x="150" y="222" width="14" height="34" rx="3" fill="#607d8b"/>
  <rect x="182" y="222" width="14" height="34" rx="3" fill="#607d8b"/>
  <rect x="110" y="270" width="150" height="18" rx="3" fill="#546e7a" stroke="#37474f" stroke-width="1.5"/>
  <rect x="150" y="262" width="60" height="8" fill="#bbdefb" stroke="#64b5f6" stroke-width="1.5"/>
  <circle cx="185" cy="332" r="18" fill="#fff59d" stroke="#fbc02d" stroke-width="2.5"/>
  <circle cx="249" cy="230" r="20" fill="#90a4ae" stroke="#455a64" stroke-width="2.5"/>
  <circle cx="249" cy="278" r="13" fill="#90a4ae" stroke="#455a64" stroke-width="2.5"/>
  <g stroke="#94a3b8" stroke-width="1.5">
    <line x1="196" y1="92" x2="352" y2="92"/>
    <line x1="269" y1="230" x2="352" y2="178"/>
    <line x1="196" y1="239" x2="352" y2="238"/>
    <line x1="262" y1="278" x2="352" y2="295"/>
    <line x1="260" y1="279" x2="352" y2="340"/>
    <line x1="203" y1="346" x2="352" y2="398"/>
  </g>
  <g font-size="15" font-weight="600" fill="#1f2937">
    <text x="358" y="96">Eyepiece</text>
    <text x="358" y="182">Coarse adjustment knob</text>
    <text x="358" y="242">Objective lenses</text>
    <text x="358" y="299">Fine adjustment knob</text>
    <text x="358" y="344">Stage</text>
    <text x="358" y="402">Light</text>
  </g>
</svg>
