<svg xmlns="http://www.w3.org/2000/svg" viewBox="0 0 720 430" font-family="Segoe UI, Arial, sans-serif">
  <rect width="720" height="430" rx="16" fill="#ffffff"/>
  <text x="20" y="34" font-size="20" font-weight="700" fill="#111827">Plant cell</text>
  <rect x="120" y="66" width="320" height="300" rx="14" fill="#c8e6c9" stroke="#2e7d32" stroke-width="7"/>
  <rect x="132" y="78" width="296" height="276" rx="8" fill="#f1f8e9" stroke="#7cb342" stroke-width="2.5"/>
  <rect x="205" y="150" width="165" height="150" rx="10" fill="#e3f2fd" stroke="#64b5f6" stroke-width="2.5"/>
  <circle cx="180" cy="140" r="30" fill="#c5b3e6" stroke="#7e57c2" stroke-width="3"/>
  <circle cx="180" cy="140" r="11" fill="#7e57c2"/>
  <ellipse cx="400" cy="108" rx="18" ry="10" fill="#66bb6a" stroke="#2e7d32" stroke-width="2"/>
  <ellipse cx="175" cy="318" rx="18" ry="10" fill="#66bb6a" stroke="#2e7d32" stroke-width="2"/>
  <ellipse cx="230" cy="330" rx="18" ry="10" fill="#66bb6a" stroke="#2e7d32" stroke-width="2"/>
  <ellipse cx="405" cy="145" rx="22" ry="11" fill="#ef9a9a" stroke="#e53935" stroke-width="2.5"/>
  <g fill="#455a64"><circle cx="300" cy="328" r="4"/><circle cx="318" cy="336" r="4"/><circle cx="285" cy="338" r="4"/></g>
  <g stroke="#94a3b8" stroke-width="1.5">
    <line x1="118" y1="74" x2="320" y2="70"/>
    <line x1="427" y1="145" x2="550" y2="160"/>
    <line x1="172" y1="140" x2="112" y2="120"/>
    <line x1="418" y1="108" x2="550" y2="108"/>
    <line x1="370" y1="230" x2="550" y2="235"/>
    <line x1="400" y1="320" x2="550" y2="315"/>
    <line x1="150" y1="350" x2="112" y2="360"/>
    <line x1="305" y1="333" x2="550" y2="375"/>
  </g>
  <g font-size="15" font-weight="600" fill="#1f2937">
    <text x="108" y="118" text-anchor="end">Nucleus</text>
    <text x="108" y="364" text-anchor="end">Cell wall</text>
    <text x="560" y="113">Chloroplast</text>
    <text x="560" y="165">Mitochondrion</text>
    <text x="560" y="240">Permanent vacuole</text>
    <text x="560" y="320">Cytoplasm</text>
    <text x="560" y="380">Ribosomes</text>
  </g>
  <text x="320" y="60" text-anchor="middle" font-size="15" font-weight="600" fill="#1f2937">Cell membrane</text>
  <line x1="320" y1="64" x2="300" y2="78" stroke="#94a3b8" stroke-width="1.5"/>
</svg>
