<svg xmlns="http://www.w3.org/2000/svg" viewBox="0 0 770 470" font-family="Segoe UI, Arial, sans-serif">
  <defs>
    <linearGradient id="bgP" x1="0" y1="0" x2="0" y2="1"><stop offset="0" stop-color="#ffffff"/><stop offset="1" stop-color="#f5fbf3"/></linearGradient>
    <filter id="shP" x="-20%" y="-20%" width="140%" height="140%"><feDropShadow dx="0" dy="2" stdDeviation="3.5" flood-color="#2e7d32" flood-opacity="0.12"/></filter>
  </defs>
  <rect width="770" height="470" rx="18" fill="url(#bgP)"/>
  <rect x="22" y="22" width="40" height="5" rx="2.5" fill="#2e7d32"/>
  <text x="22" y="50" font-size="21" font-weight="800" fill="#1f2937">Plant cell</text>
  <rect x="130" y="84" width="330" height="322" rx="16" fill="#bfe3c1" stroke="#2e7d32" stroke-width="8" filter="url(#shP)"/>
  <rect x="143" y="97" width="304" height="296" rx="9" fill="#f1f8e9" stroke="#7cb342" stroke-width="2.5"/>
  <rect x="212" y="172" width="182" height="162" rx="12" fill="#e3f2fd" stroke="#64b5f6" stroke-width="2.5"/>
  <text x="303" y="258" text-anchor="middle" font-size="12" fill="#7a8aa0">cell sap</text>
  <circle cx="188" cy="158" r="32" fill="#cbb6ec" stroke="#7e57c2" stroke-width="3"/>
  <circle cx="188" cy="158" r="11" fill="#7e57c2"/>
  <g transform="rotate(-18 410 124)"><ellipse cx="410" cy="124" rx="21" ry="11" fill="#66bb6a" stroke="#2e7d32" stroke-width="2"/></g>
  <g transform="rotate(20 178 350)"><ellipse cx="178" cy="350" rx="21" ry="11" fill="#66bb6a" stroke="#2e7d32" stroke-width="2"/></g>
  <g transform="rotate(-10 240 368)"><ellipse cx="240" cy="368" rx="21" ry="11" fill="#66bb6a" stroke="#2e7d32" stroke-width="2"/></g>
  <g transform="rotate(-10 412 168)"><ellipse cx="412" cy="168" rx="24" ry="12" fill="#f0a0a0" stroke="#e53935" stroke-width="2.4"/><path d="M394 169 q12 -12 24 0" fill="none" stroke="#b71c1c" stroke-width="1.8"/></g>
  <g fill="#3f5160"><circle cx="305" cy="360" r="4.2"/><circle cx="323" cy="370" r="4.2"/><circle cx="290" cy="372" r="4.2"/></g>
  <text x="303" y="74" text-anchor="middle" font-size="15.5" font-weight="600" fill="#1f2937">Cell membrane</text>
  <line x1="303" y1="79" x2="303" y2="97" stroke="#9aa3b2" stroke-width="1.6"/>
  <g stroke="#9aa3b2" stroke-width="1.6" fill="none">
    <line x1="130" y1="96" x2="66" y2="96"/>
    <line x1="158" y1="150" x2="66" y2="150"/>
    <line x1="431" y1="124" x2="600" y2="112"/>
    <line x1="436" y1="168" x2="600" y2="170"/>
    <line x1="394" y1="250" x2="600" y2="248"/>
    <line x1="326" y1="360" x2="600" y2="330"/>
    <line x1="323" y1="372" x2="600" y2="398"/>
  </g>
  <g fill="#2e7d32"><circle cx="431" cy="124" r="3.3"/><circle cx="436" cy="168" r="3.3"/><circle cx="394" cy="250" r="3.3"/><circle cx="326" cy="360" r="3.3"/><circle cx="130" cy="96" r="3.3"/><circle cx="158" cy="150" r="3.3"/></g>
  <g font-size="15.5" font-weight="600" fill="#1f2937">
    <text x="60" y="100" text-anchor="end">Cell wall</text>
    <text x="60" y="154" text-anchor="end">Nucleus</text>
    <text x="606" y="116">Chloroplast</text>
    <text x="606" y="174">Mitochondrion</text>
    <text x="606" y="252">Permanent vacuole</text>
    <text x="606" y="334">Cytoplasm</text>
    <text x="606" y="402">Ribosomes</text>
  </g>
</svg>
